<svg data-v-fde0c5aa="" xmlns="http://www.w3.org/2000/svg" viewBox="0 0 300 300" class="iconLeft"><!---->
    <defs data-v-fde0c5aa=""><!----></defs>
    <rect data-v-fde0c5aa="" fill="transparent" x="0" y="0" width="300px" height="300px"
          class="logo-background-square"></rect>
    <defs data-v-fde0c5aa=""><!----></defs>
    <g data-v-fde0c5aa="" id="a8ea3fc5-6e9a-40ae-8256-be5dabc7ff73" fill="#000000"
       transform="matrix(3.1182107715889815,0,0,3.1182107715889815,81.01767015272686,127.51770096133252)">
        <path d="M1.95 10.21L0.66 10.74C0.67 11.29 0.91 11.76 1.37 12.15C1.84 12.54 2.46 12.74 3.23 12.74C4.02 12.74 4.66 12.56 5.16 12.21C5.66 11.85 5.91 11.34 5.91 10.67C5.91 10.13 5.76 9.71 5.46 9.41C5.16 9.12 4.76 8.88 4.27 8.68C3.84 8.50 3.53 8.35 3.33 8.22C3.12 8.09 3.02 7.94 3.02 7.78C3.02 7.63 3.12 7.50 3.30 7.42C3.49 7.34 3.71 7.29 3.96 7.29C4.48 7.29 4.86 7.53 5.11 7.99L6.38 7.42C6.32 7.06 6.05 6.73 5.59 6.45C5.12 6.16 4.60 6.02 4.03 6.02C3.35 6.02 2.76 6.18 2.27 6.50C1.77 6.81 1.53 7.28 1.53 7.88C1.53 8.75 2.10 9.37 3.23 9.74C4.00 10.01 4.38 10.34 4.38 10.75C4.38 11.19 4.01 11.41 3.26 11.41C2.91 11.41 2.60 11.30 2.35 11.09C2.09 10.87 1.96 10.58 1.95 10.21ZM9.16 8.54C9.26 8.15 9.49 7.85 9.84 7.65C10.20 7.45 10.59 7.35 11.03 7.35C11.44 7.35 11.72 7.44 11.87 7.63C12.02 7.82 12.05 8.17 11.97 8.68L11.28 12.60L12.78 12.60L13.50 8.54C13.65 7.64 13.54 7.00 13.15 6.61C12.77 6.22 12.23 6.02 11.55 6.02C10.72 6.02 10.01 6.34 9.44 6.97L10.37 1.68L8.88 1.68L6.94 12.60L8.44 12.60ZM16.46 1.68L14.53 12.60L16.04 12.60L16.65 9.23L18.66 12.60L20.48 12.60L18.21 8.82L21.34 6.16L19.31 6.16L16.80 8.29L17.98 1.68ZM26.32 8.69L22.78 8.69C22.93 8.29 23.22 7.96 23.65 7.69C24.09 7.42 24.53 7.28 24.99 7.28C25.89 7.28 26.33 7.70 26.33 8.55C26.33 8.56 26.33 8.59 26.33 8.62C26.32 8.66 26.32 8.68 26.32 8.69ZM22.57 9.73L27.68 9.73C27.80 9.34 27.86 8.92 27.86 8.48C27.86 7.70 27.61 7.09 27.12 6.66C26.62 6.23 25.94 6.02 25.07 6.02C23.94 6.02 22.99 6.39 22.22 7.13C21.44 7.86 21.06 8.82 21.06 10.01C21.06 10.88 21.30 11.55 21.78 12.03C22.27 12.50 22.97 12.74 23.90 12.74C25.36 12.74 26.54 12.24 27.43 11.24L26.26 10.51C25.73 11.11 24.98 11.41 24.00 11.41C23.04 11.41 22.57 10.91 22.57 9.90ZM30.45 1.68L28.52 12.60L30.02 12.60L31.95 1.68ZM37.10 8.69L33.56 8.69C33.71 8.29 34.00 7.96 34.43 7.69C34.87 7.42 35.31 7.28 35.77 7.28C36.67 7.28 37.11 7.70 37.11 8.55C37.11 8.56 37.11 8.59 37.11 8.62C37.10 8.66 37.10 8.68 37.10 8.69ZM33.35 9.73L38.46 9.73C38.58 9.34 38.64 8.92 38.64 8.48C38.64 7.70 38.39 7.09 37.90 6.66C37.40 6.23 36.72 6.02 35.85 6.02C34.72 6.02 33.77 6.39 33.00 7.13C32.22 7.86 31.84 8.82 31.84 10.01C31.84 10.88 32.08 11.55 32.56 12.03C33.05 12.50 33.75 12.74 34.68 12.74C36.14 12.74 37.32 12.24 38.21 11.24L37.04 10.51C36.51 11.11 35.76 11.41 34.78 11.41C33.82 11.41 33.35 10.91 33.35 9.90ZM40.95 3.92L40.56 6.16L39.54 6.16L39.30 7.49L40.32 7.49L39.42 12.60L40.95 12.60L41.85 7.49L42.87 7.49L43.11 6.16L42.08 6.16L42.48 3.92ZM46.98 6.02C45.92 6.02 44.98 6.37 44.15 7.08C43.32 7.78 42.91 8.73 42.91 9.91C42.91 10.79 43.22 11.48 43.83 11.98C44.44 12.49 45.17 12.74 46.02 12.74C47.17 12.74 48.13 12.38 48.92 11.66C49.71 10.94 50.11 10.01 50.11 8.85C50.11 7.98 49.83 7.29 49.29 6.78C48.74 6.27 47.97 6.02 46.98 6.02ZM44.41 9.84C44.41 9.10 44.65 8.49 45.14 8.04C45.63 7.58 46.21 7.35 46.89 7.35C47.42 7.35 47.84 7.49 48.15 7.76C48.45 8.04 48.61 8.43 48.61 8.93C48.61 9.68 48.36 10.28 47.87 10.73C47.38 11.18 46.80 11.41 46.12 11.41C45.58 11.41 45.17 11.27 44.86 11.00C44.56 10.73 44.41 10.35 44.41 9.84ZM53.27 6.99L53.41 6.16L51.91 6.16L50.78 12.60L52.28 12.60L52.99 8.57C53.09 8.17 53.32 7.86 53.67 7.66C54.02 7.45 54.42 7.35 54.87 7.35C55.28 7.35 55.56 7.44 55.71 7.63C55.86 7.82 55.89 8.17 55.80 8.68L55.12 12.60L56.62 12.60L57.33 8.54C57.49 7.64 57.37 7.00 56.99 6.61C56.60 6.22 56.07 6.02 55.38 6.02C54.54 6.02 53.84 6.34 53.27 6.99Z"></path>
    </g>
    <defs data-v-fde0c5aa="">
        <linearGradient data-v-fde0c5aa="" gradientTransform="rotate(25)" id="23b7679c-9384-4696-bcea-05f7af53cf7d"
                        x1="0%" y1="0%" x2="100%" y2="0%">
            <stop data-v-fde0c5aa="" offset="0%" stop-color="#30092A" stop-opacity="1"></stop>
            <stop data-v-fde0c5aa="" offset="100%" stop-color="#CB3C61" stop-opacity="1"></stop>
        </linearGradient>
    </defs>
    <g data-v-fde0c5aa="" id="b502968d-8599-49e9-80f5-7ef3dbac352a" stroke="url(#23b7679c-9384-4696-bcea-05f7af53cf7d)"
       fill="none" transform="matrix(0.706516161434832,0,0,0.706516161434832,21.477972592119553,116.44048165805917)">
        <path stroke-width="8" stroke-miterlimit="10"
              d="M58.037 42.71L26.216 10.89M60.844 39.903L26.216 74.53M68.785 49.483L34.157 84.11"></path>
    </g><!---->
</svg>
